<svg width="24" height="24" viewBox="0 0 24 24" fill="none" xmlns="http://www.w3.org/2000/svg">
<g id="Color=Blue">
<g id="Vector">
<path d="M20 12C20 16.4183 16.4183 20 12 20C7.58172 20 4 16.4183 4 12C4 7.58172 7.58172 4 12 4C16.4183 4 20 7.58172 20 12Z" fill="#121E6C"/>
<path fill-rule="evenodd" clip-rule="evenodd" d="M16.7323 9.31899C17.1084 9.72341 17.0854 10.3562 16.681 10.7323L10.8387 16.1656L7.31899 12.8923C6.91456 12.5162 6.89162 11.8834 7.26773 11.479C7.64384 11.0746 8.27659 11.0516 8.68101 11.4277L10.8387 13.4344L15.319 9.26773C15.7234 8.89162 16.3562 8.91457 16.7323 9.31899Z" fill="white"/>
</g>
</g>
</svg>
