<svg width="24" height="16" viewBox="0 0 24 16" fill="none" xmlns="http://www.w3.org/2000/svg">
<path fill-rule="evenodd" clip-rule="evenodd" d="M2.74004 1.10999C2.21618 1.10999 1.79004 1.53613 1.79004 2.05999V13.94C1.79004 14.4638 2.21618 14.89 2.74004 14.89H21.27C21.7916 14.89 22.21 14.4661 22.21 13.95V2.04999C22.21 1.53386 21.7916 1.10999 21.27 1.10999H2.74004ZM0.790039 2.05999C0.790039 0.983843 1.6639 0.109985 2.74004 0.109985H21.27C22.3484 0.109985 23.21 0.986106 23.21 2.04999V13.95C23.21 15.0139 22.3484 15.89 21.27 15.89H2.74004C1.6639 15.89 0.790039 15.0161 0.790039 13.94V2.05999ZM4.32004 3.56999C4.28138 3.56999 4.25004 3.60133 4.25004 3.63999V5.38999C4.25004 5.42865 4.28138 5.45999 4.32004 5.45999H7.27004C7.3087 5.45999 7.34004 5.42865 7.34004 5.38999V3.63999C7.34004 3.60133 7.3087 3.56999 7.27004 3.56999H4.32004ZM3.25004 3.63999C3.25004 3.04904 3.72909 2.56999 4.32004 2.56999H7.27004C7.86098 2.56999 8.34004 3.04904 8.34004 3.63999V5.38999C8.34004 5.98093 7.86098 6.45999 7.27004 6.45999H4.32004C3.72909 6.45999 3.25004 5.98093 3.25004 5.38999V3.63999ZM3.25004 12.5C3.25004 12.2238 3.4739 12 3.75004 12H6.11004C6.38618 12 6.61004 12.2238 6.61004 12.5C6.61004 12.7761 6.38618 13 6.11004 13H3.75004C3.4739 13 3.25004 12.7761 3.25004 12.5ZM7.54004 12.5C7.54004 12.2238 7.7639 12 8.04004 12H14.32C14.5962 12 14.82 12.2238 14.82 12.5C14.82 12.7761 14.5962 13 14.32 13H8.04004C7.7639 13 7.54004 12.7761 7.54004 12.5Z" fill="#121E6C"/>
</svg>
