<svg width="96" height="96" viewBox="0 0 96 96" fill="none" xmlns="http://www.w3.org/2000/svg">
<path fill-rule="evenodd" clip-rule="evenodd" d="M1.00027 41.0665C0.999094 40.8295 1.03502 40.7432 1.31064 40.7467C2.72351 40.7663 4.13755 40.7277 5.54865 40.7703C7.62525 40.8336 9.5128 41.4243 11.0517 42.8573C12.1112 43.8432 12.7773 45.0501 13.0394 46.4508C13.5618 49.2413 12.7561 51.6091 10.58 53.5016C9.39207 54.5348 7.96801 55.0542 6.39554 55.1785C4.6623 55.3154 2.92434 55.2066 1.18873 55.2435C0.981425 55.2481 1.00439 55.1382 1.00439 55.0111C1.00616 53.5833 1.00911 43.3761 1.00027 41.0665ZM3.88961 52.5197C3.88843 52.7158 3.93083 52.7785 4.14285 52.7762C4.72178 52.7688 5.30129 52.7745 5.87669 52.7118C6.92736 52.5968 7.91206 52.3022 8.68122 51.551C9.97394 50.2877 10.4486 48.7518 10.09 47.014C9.72835 45.2635 8.69712 44.0302 6.90851 43.4889C6.03747 43.2254 5.13168 43.2415 4.23001 43.2306C3.97324 43.2277 3.88431 43.2772 3.88725 43.5527C3.90315 45.0375 3.89785 51.0154 3.88961 52.5197Z" fill="#231F20"/>
<path fill-rule="evenodd" clip-rule="evenodd" d="M88.6715 49.1671C90.2252 51.1966 91.7541 53.1939 93.32 55.2394H92.6952C91.8218 55.2394 90.9478 55.2262 90.0744 55.2475C89.81 55.2538 89.6763 55.1578 89.5396 54.957C88.3288 53.1841 87.1073 51.4175 85.8888 49.6498C85.8723 49.6256 85.8523 49.6032 85.8417 49.5773C85.7681 49.4007 85.6096 49.4122 85.4695 49.4404C85.3146 49.4714 85.3888 49.6135 85.3882 49.7027C85.3835 51.4382 85.377 53.1732 85.3923 54.9087C85.3947 55.1974 85.3075 55.2532 85.0325 55.2469C84.2674 55.2279 83.5012 55.2348 82.7356 55.244C82.5424 55.2463 82.4641 55.2124 82.4647 54.9978C82.4712 50.3286 82.47 45.6599 82.4671 40.9906C82.4671 40.8324 82.4841 40.7467 82.685 40.7507C84.3328 40.7841 85.983 40.6863 87.6291 40.81C88.7722 40.8957 89.8471 41.1977 90.7263 41.9587C91.7805 42.8722 92.0774 44.0699 92.0055 45.3895C91.9001 47.3304 90.8176 48.612 88.8883 49.0895C88.8229 49.1056 88.7611 49.1344 88.6715 49.1671ZM85.3847 45.2411C85.3847 45.8819 85.3964 46.5239 85.3782 47.1641C85.3717 47.3891 85.4447 47.4328 85.6562 47.4247C86.0861 47.4075 86.5166 47.4167 86.9465 47.3724C88.2063 47.2424 88.9224 46.5314 89.0155 45.2992C89.0909 44.3069 88.5714 43.5562 87.605 43.2467C86.9695 43.0431 86.314 43.0655 85.6591 43.0529C85.4453 43.0488 85.3723 43.0943 85.3782 43.3175C85.3953 43.9583 85.3847 44.6003 85.3847 45.2411Z" fill="#231F20"/>
<path fill-rule="evenodd" clip-rule="evenodd" d="M72.3797 41.036C72.3791 40.8186 72.4245 40.7478 72.6642 40.7484C75.216 40.7582 77.7673 40.7565 80.3192 40.7501C80.5177 40.7501 80.5895 40.7875 80.5848 40.9975C80.5701 41.6682 80.5707 42.3396 80.5848 43.0103C80.5889 43.2128 80.5124 43.2398 80.3333 43.2387C78.7532 43.2329 77.1731 43.2421 75.5935 43.2283C75.325 43.226 75.2714 43.3025 75.2761 43.5487C75.292 44.4208 75.2903 45.2934 75.2761 46.1655C75.2726 46.3835 75.3356 46.4359 75.5547 46.4347C77.0759 46.4249 78.5971 46.4359 80.1178 46.4232C80.3581 46.4215 80.404 46.4934 80.3993 46.7091C80.3852 47.3511 80.3852 47.9936 80.3993 48.6356C80.4034 48.8387 80.3445 48.887 80.1402 48.8858C78.6289 48.8772 77.1171 48.8893 75.6065 48.8738C75.3244 48.8709 75.2726 48.9578 75.2755 49.2103C75.2891 50.3027 75.2873 51.3956 75.2761 52.4886C75.2738 52.7061 75.3203 52.7774 75.5606 52.7757C77.1407 52.7636 78.7208 52.7757 80.3003 52.7636C80.5359 52.7619 80.5889 52.8274 80.5842 53.0472C80.5695 53.7081 80.5742 54.3702 80.5825 55.0312C80.5842 55.1894 80.5448 55.2435 80.3728 55.2429C77.782 55.2377 75.1913 55.236 72.6 55.2452C72.3638 55.2463 72.3827 55.1336 72.3827 54.9829C72.3844 52.6439 72.3874 43.3462 72.3797 41.036Z" fill="#231F20"/>
<path fill-rule="evenodd" clip-rule="evenodd" d="M20.3575 51.0539C20.748 51.7673 21.2627 52.3477 22.0207 52.6733C22.8352 53.023 23.6744 53.145 24.5201 52.7757C25.2887 52.4403 25.7039 51.8415 25.7369 51.0269C25.7699 50.2193 25.3276 49.6785 24.6114 49.3294C23.7881 48.9278 22.8982 48.6897 22.0572 48.333C21.235 47.9844 20.4523 47.5806 19.8846 46.8667C19.5377 46.4301 19.3457 45.9314 19.278 45.3976C18.9782 43.0189 20.3122 41.3173 22.3352 40.7582C24.4483 40.1743 26.3512 40.6874 28.0561 41.9961C28.1822 42.0928 28.2252 42.1612 28.1044 42.3085C27.6704 42.8394 27.2463 43.3784 26.8359 43.9267C26.711 44.0935 26.6568 44.0463 26.5432 43.9278C26.0797 43.4446 25.5473 43.0529 24.8576 42.9568C23.9872 42.8354 23.1632 42.9441 22.5572 43.6488C22.0154 44.2793 22.1355 45.0725 22.8199 45.5477C23.4324 45.9728 24.1468 46.1868 24.8376 46.4474C25.4854 46.6919 26.1179 46.9651 26.7234 47.3005C27.959 47.9844 28.6374 48.9882 28.7264 50.3947C28.8754 52.7693 27.5979 54.7741 25.2175 55.3717C22.6779 56.0091 20.1962 55.3033 18.5672 52.954C18.5 52.8568 18.4924 52.8004 18.5854 52.7147C19.1755 52.1682 19.7598 51.616 20.3569 51.0551L20.3575 51.0539Z" fill="#231F20"/>
<path fill-rule="evenodd" clip-rule="evenodd" d="M56.8429 40.7542C57.8494 40.7542 58.8111 40.7605 59.7723 40.749C59.9649 40.7467 60.0397 40.814 60.1062 40.9785C60.9908 43.1662 63.5403 49.4312 63.932 50.3982C64.111 50.2055 66.6582 43.895 67.859 40.9687C67.9067 40.852 67.9415 40.749 68.1158 40.7507C69.0964 40.7594 70.0775 40.7547 71.0999 40.7547C70.8667 41.3018 66.6658 51.0378 64.7959 55.385C64.7217 55.557 64.6399 55.6133 64.4561 55.6064C64.0839 55.5926 63.7105 55.5938 63.3377 55.6064C63.1716 55.6122 63.0968 55.5529 63.0356 55.4074C61.8836 52.6773 57.8406 43.1386 56.9772 41.0964C56.933 40.9923 56.8941 40.8853 56.8429 40.7542Z" fill="#231F20"/>
<path fill-rule="evenodd" clip-rule="evenodd" d="M41.0687 44.671C40.5216 44.1602 39.9975 43.7305 39.3714 43.4475C36.9073 42.3344 33.9408 43.5297 32.9915 46.0827C32.26 48.0489 32.5032 49.9184 33.9732 51.5147C34.9562 52.5824 36.2542 52.9718 37.7024 52.9569C38.8514 52.9454 39.8014 52.4886 40.6418 51.7638C40.7654 51.6568 40.885 51.5458 41.0051 51.4376C41.1094 51.4934 41.0664 51.5797 41.067 51.647C41.0705 52.5962 41.067 53.5453 41.0711 54.4945C41.0711 54.6383 41.0499 54.7263 40.8897 54.8017C37.9144 56.2012 34.1499 55.6473 31.8224 53.3198C30.3819 51.8794 29.6722 50.1405 29.6274 48.1277C29.5515 44.7216 31.8748 41.7517 35.1069 40.7979C37.0899 40.2123 39.0263 40.3245 40.8944 41.2403C40.9951 41.2897 41.0729 41.3317 41.0723 41.4675C41.067 42.5115 41.0687 43.5556 41.0687 44.671Z" fill="#231F20"/>
<path fill-rule="evenodd" clip-rule="evenodd" d="M17.417 54.9236C17.4181 55.1618 17.3816 55.2555 17.103 55.2475C16.3186 55.2251 15.5329 55.2337 14.7479 55.244C14.5577 55.2463 14.4988 55.1986 14.4988 55.0065C14.5041 50.3378 14.5046 45.6691 14.4982 40.9998C14.4982 40.7893 14.5688 40.7478 14.7661 40.7507C15.5412 40.7611 16.3174 40.7663 17.0919 40.7484C17.3486 40.7427 17.4193 40.8025 17.4181 41.0614C17.4069 43.3813 17.4087 52.6226 17.417 54.9236Z" fill="#231F20"/>
<path fill-rule="evenodd" clip-rule="evenodd" d="M93.866 40.6547C93.2393 40.6547 92.7317 41.1551 92.7317 41.7729C92.7317 42.3907 93.2393 42.8912 93.866 42.8912C94.4926 42.8912 95.0003 42.3907 95.0003 41.7729C95.0003 41.1551 94.4926 40.6547 93.866 40.6547ZM93.866 42.6835C93.3724 42.6835 92.972 42.2757 92.972 41.7729C92.972 41.2702 93.3724 40.8623 93.866 40.8623C94.3595 40.8623 94.76 41.2702 94.76 41.7729C94.76 42.2757 94.3595 42.6835 93.866 42.6835Z" fill="#252122"/>
<path fill-rule="evenodd" clip-rule="evenodd" d="M93.9649 41.8874C94.1051 42.0703 94.2435 42.251 94.3842 42.4356H94.3277C94.2488 42.4356 94.1699 42.4345 94.091 42.4362C94.0674 42.4368 94.055 42.4281 94.0427 42.4097C93.9331 42.2498 93.823 42.0905 93.7129 41.9306C93.7111 41.9283 93.7093 41.9265 93.7087 41.9242C93.7023 41.9081 93.6875 41.9093 93.6752 41.9116C93.661 41.9144 93.6681 41.9271 93.6681 41.9352C93.6681 42.0916 93.6669 42.2487 93.6681 42.4051C93.6681 42.431 93.6604 42.4362 93.6357 42.4356C93.5668 42.4339 93.4973 42.4345 93.4284 42.4356C93.4107 42.4356 93.4043 42.4327 93.4043 42.4132C93.4048 41.9915 93.4043 41.5704 93.4043 41.1488C93.4043 41.1344 93.406 41.1269 93.4237 41.1269C93.5721 41.1298 93.7211 41.1212 93.8701 41.1321C93.9732 41.1396 94.0703 41.1672 94.1498 41.2357C94.2453 41.3179 94.2718 41.4261 94.2653 41.5451C94.2559 41.7206 94.1581 41.8362 93.9838 41.8794C93.9779 41.8811 93.9726 41.8834 93.9643 41.8863L93.9649 41.8874ZM93.6681 41.5331C93.6681 41.5912 93.6693 41.6487 93.6681 41.7068C93.6681 41.7269 93.674 41.7309 93.6934 41.7304C93.7323 41.7286 93.7712 41.7298 93.81 41.7258C93.9237 41.7143 93.9885 41.6498 93.9967 41.5388C94.0032 41.4491 93.9567 41.3812 93.8695 41.3536C93.8124 41.3352 93.7529 41.3369 93.694 41.3363C93.6746 41.3363 93.6681 41.3403 93.6687 41.3605C93.6704 41.4186 93.6687 41.4761 93.6687 41.5342L93.6681 41.5331Z" fill="#231F20"/>
<path d="M49.8286 55.683C54.1572 55.683 57.6662 52.2432 57.6662 48C57.6662 43.7568 54.1572 40.317 49.8286 40.317C45.5 40.317 41.991 43.7568 41.991 48C41.991 52.2432 45.5 55.683 49.8286 55.683Z" fill="url(#paint0_linear_6003_13981)"/>
<defs>
<linearGradient id="paint0_linear_6003_13981" x1="46.5058" y1="41.0395" x2="52.8984" y2="55.0751" gradientUnits="userSpaceOnUse">
<stop offset="0.38" stop-color="#E35E26"/>
<stop offset="1" stop-color="#F9A121"/>
</linearGradient>
</defs>
</svg>
