<svg width="20" height="20" viewBox="0 0 20 20" fill="none" xmlns="http://www.w3.org/2000/svg">
<path fill-rule="evenodd" clip-rule="evenodd" d="M10 0.908265C4.97877 0.908265 0.908265 4.97877 0.908265 10C0.908265 15.0212 4.97877 19.0917 10 19.0917C15.0212 19.0917 19.0917 15.0212 19.0917 10C19.0917 4.97877 15.0212 0.908265 10 0.908265ZM0 10C0 4.47715 4.47715 0 10 0C15.5228 0 20 4.47715 20 10C20 15.5228 15.5228 20 10 20C4.47715 20 0 15.5228 0 10Z" fill="#121E6C"/>
<path fill-rule="evenodd" clip-rule="evenodd" d="M10.0309 5.91274C8.77231 5.89758 7.7475 6.90517 7.7475 8.14711C7.7475 8.39792 7.54418 8.60124 7.29337 8.60124C7.04256 8.60124 6.83924 8.39792 6.83924 8.14711C6.83924 6.39178 8.28491 4.98338 10.0418 5.00454C11.8029 5.02576 13.1299 6.43939 13.1516 8.10399C13.1726 9.35065 12.458 10.4209 11.4342 10.9486L11.4313 10.9501C10.828 11.2555 10.4541 11.8186 10.4541 12.4432V12.7702C10.4541 13.021 10.2508 13.2243 10 13.2243C9.74919 13.2243 9.54587 13.021 9.54587 12.7702V12.4432C9.54587 11.4335 10.1522 10.5802 11.0195 10.1406C11.7568 9.75987 12.2585 8.99625 12.2435 8.11854L12.2435 8.11656C12.2283 6.92964 11.2849 5.92785 10.0309 5.91274Z" fill="#121E6C"/>
<path d="M10.0545 15.5767C10.4357 15.5767 10.7448 15.2677 10.7448 14.8864C10.7448 14.5052 10.4357 14.1962 10.0545 14.1962C9.67326 14.1962 9.36421 14.5052 9.36421 14.8864C9.36421 15.2677 9.67326 15.5767 10.0545 15.5767Z" fill="#121E6C"/>
</svg>
