<svg width="24" height="24" viewBox="0 0 24 24" fill="none" xmlns="http://www.w3.org/2000/svg">
<g id="Color=Error">
<g id="Vector">
<path d="M20 12C20 16.4183 16.4183 20 12 20C7.58172 20 4 16.4183 4 12C4 7.58172 7.58172 4 12 4C16.4183 4 20 7.58172 20 12Z" fill="#910022"/>
<path d="M15.9571 9.45712C16.3476 9.0666 16.3476 8.43343 15.9571 8.04291C15.5666 7.65238 14.9334 7.65238 14.5429 8.04291L12.125 10.4608L9.7071 8.04291C9.31657 7.65238 8.68341 7.65238 8.29289 8.04291C7.90236 8.43343 7.90236 9.0666 8.29289 9.45712L10.7108 11.875L8.29289 14.2929C7.90236 14.6834 7.90236 15.3166 8.29289 15.7071C8.68341 16.0976 9.31657 16.0976 9.7071 15.7071L12.125 13.2892L14.5429 15.7071C14.9334 16.0976 15.5666 16.0976 15.9571 15.7071C16.3476 15.3166 16.3476 14.6834 15.9571 14.2929L13.5392 11.875L15.9571 9.45712Z" fill="white"/>
</g>
</g>
</svg>