<svg width="17" height="13" viewBox="0 0 17 13" fill="none" xmlns="http://www.w3.org/2000/svg">
<path d="M3.41264 12.3945V11.5696C3.41264 11.2546 3.22066 11.0476 2.8907 11.0476C2.72572 11.0476 2.54874 11.1016 2.42276 11.2816C2.32677 11.1316 2.18879 11.0476 1.98181 11.0476C1.84383 11.0476 1.70585 11.0896 1.59786 11.2396V11.0746H1.3099V12.3945H1.59786V11.6655C1.59786 11.4316 1.72085 11.3236 1.91282 11.3236C2.1048 11.3236 2.20079 11.4466 2.20079 11.6655V12.3945H2.48875V11.6655C2.48875 11.4316 2.62673 11.3236 2.80371 11.3236C2.99569 11.3236 3.09168 11.4466 3.09168 11.6655V12.3945H3.41264ZM7.21616 11.0746V10.6757H6.9282V11.0746H6.66723V11.3356H6.9282V11.9385C6.9282 12.2415 7.05118 12.4184 7.38114 12.4184C7.50412 12.4184 7.64211 12.3765 7.73809 12.3225L7.65711 12.0765C7.57612 12.1305 7.47713 12.1455 7.41114 12.1455C7.27315 12.1455 7.21916 12.0645 7.21916 11.9265V11.3356H7.6871V11.0746H7.21616ZM10.1288 11.0476C9.96382 11.0476 9.85283 11.1286 9.78684 11.2396V11.0746H9.49887V12.3945H9.78684V11.6535C9.78684 11.4346 9.88283 11.3116 10.0628 11.3116C10.1168 11.3116 10.1858 11.3266 10.2428 11.3386L10.3238 11.0626C10.2698 11.0476 10.1858 11.0476 10.1318 11.0476H10.1288ZM6.43626 11.1856C6.29828 11.0896 6.1063 11.0476 5.89932 11.0476C5.56937 11.0476 5.35039 11.2126 5.35039 11.4736C5.35039 11.6925 5.51537 11.8155 5.80334 11.8575L5.94132 11.8725C6.0913 11.8995 6.17529 11.9415 6.17529 12.0105C6.17529 12.1065 6.0643 12.1755 5.87233 12.1755C5.68035 12.1755 5.53037 12.1065 5.43438 12.0375L5.2964 12.2565C5.44638 12.3675 5.65336 12.4214 5.86033 12.4214C6.24428 12.4214 6.46325 12.2445 6.46325 11.9955C6.46325 11.7615 6.28328 11.6385 6.01031 11.5965L5.87233 11.5816C5.74934 11.5666 5.65336 11.5396 5.65336 11.4586C5.65336 11.3626 5.74934 11.3086 5.89932 11.3086C6.0643 11.3086 6.22928 11.3776 6.31027 11.4196L6.43326 11.1856H6.43626ZM14.1003 11.0476C13.9353 11.0476 13.8243 11.1286 13.7583 11.2396V11.0746H13.4704V12.3945H13.7583V11.6535C13.7583 11.4346 13.8543 11.3116 14.0343 11.3116C14.0883 11.3116 14.1573 11.3266 14.2143 11.3386L14.2953 11.0626C14.2413 11.0476 14.1573 11.0476 14.1033 11.0476H14.1003ZM10.4228 11.7345C10.4228 12.1335 10.6987 12.4214 11.1247 12.4214C11.3166 12.4214 11.4546 12.3795 11.5926 12.2715L11.4546 12.0375C11.3436 12.1215 11.2357 12.1605 11.1127 12.1605C10.8787 12.1605 10.7137 11.9955 10.7137 11.7345C10.7137 11.4886 10.8787 11.3236 11.1127 11.3086C11.2357 11.3086 11.3466 11.3506 11.4546 11.4316L11.5926 11.1976C11.4546 11.0866 11.3166 11.0476 11.1247 11.0476C10.6987 11.0476 10.4228 11.3356 10.4228 11.7345ZM13.0864 11.0746H12.7985V11.2396C12.7025 11.1166 12.5645 11.0476 12.3875 11.0476C12.0156 11.0476 11.7276 11.3356 11.7276 11.7345C11.7276 12.1335 12.0156 12.4214 12.3875 12.4214C12.5795 12.4214 12.7175 12.3525 12.7985 12.2295V12.3945H13.0864V11.0746ZM12.0276 11.7345C12.0276 11.5006 12.1775 11.3086 12.4265 11.3086C12.6605 11.3086 12.8255 11.4886 12.8255 11.7345C12.8255 11.9685 12.6605 12.1605 12.4265 12.1605C12.1805 12.1455 12.0276 11.9685 12.0276 11.7345ZM8.58099 11.0476C8.19704 11.0476 7.92107 11.3236 7.92107 11.7345C7.92107 12.1455 8.19704 12.4214 8.59299 12.4214C8.78496 12.4214 8.97694 12.3675 9.12992 12.2445L8.99194 12.0375C8.88095 12.1215 8.74597 12.1755 8.60799 12.1755C8.43101 12.1755 8.25103 12.0915 8.20904 11.8605H9.18391V11.7495C9.19891 11.3236 8.94994 11.0476 8.58099 11.0476ZM8.58099 11.2936C8.76097 11.2936 8.88395 11.4046 8.91095 11.6085H8.22403C8.25103 11.4316 8.37402 11.2936 8.58099 11.2936ZM15.7381 10.5527H15.4501V11.2396C15.3541 11.1166 15.2162 11.0476 15.0392 11.0476C14.6672 11.0476 14.3793 11.3356 14.3793 11.7345C14.3793 12.1335 14.6672 12.4214 15.0392 12.4214C15.2312 12.4214 15.3691 12.3525 15.4501 12.2295V12.3945H15.7381V10.5527ZM14.6792 11.7345C14.6792 11.5006 14.8292 11.3086 15.0782 11.3086C15.3121 11.3086 15.4771 11.4886 15.4771 11.7345C15.4771 11.9685 15.3121 12.1605 15.0782 12.1605C14.8322 12.1455 14.6792 11.9685 14.6792 11.7345ZM5.03843 11.0746H4.75047V11.2396C4.65448 11.1166 4.5165 11.0476 4.33952 11.0476C3.96757 11.0476 3.6796 11.3356 3.6796 11.7345C3.6796 12.1335 3.96757 12.4214 4.33952 12.4214C4.5315 12.4214 4.66948 12.3525 4.75047 12.2295V12.3945H5.03843V11.0746ZM3.96757 11.7345C3.96757 11.5006 4.11755 11.3086 4.36652 11.3086C4.60049 11.3086 4.76547 11.4886 4.76547 11.7345C4.76547 11.9685 4.60049 12.1605 4.36652 12.1605C4.12055 12.1455 3.96757 11.9685 3.96757 11.7345Z" fill="#050505"/>
<path d="M10.6627 1.06187H6.33727V8.83689H10.6627V1.06187Z" fill="#F94D00"/>
<path d="M6.61324 4.94938C6.61324 3.36858 7.35414 1.96775 8.494 1.06187C7.65711 0.401949 6.59824 0.00299969 5.44338 0.00299969C2.71072 0.00599932 0.5 2.21672 0.5 4.94938C0.5 7.68204 2.71072 9.89276 5.44338 9.89276C6.59824 9.89276 7.65411 9.49381 8.494 8.83389C7.35414 7.94001 6.61324 6.52718 6.61324 4.94638" fill="#EF0000"/>
<path d="M16.5 4.94938C16.5 7.68204 14.2893 9.89276 11.5566 9.89276C10.4018 9.89276 9.34589 9.49381 8.506 8.83389C9.66085 7.92801 10.3868 6.52718 10.3868 4.94638C10.3868 3.36558 9.64586 1.96475 8.506 1.05887C9.34289 0.39895 10.4018 0 11.5566 0C14.2893 0 16.5 2.22572 16.5 4.94338" fill="#FF9600"/>
</svg>
