<svg width="36" height="36" viewBox="0 0 36 36" fill="none" xmlns="http://www.w3.org/2000/svg">
<path d="M18 29.8761C24.5593 29.8761 29.8766 24.559 29.8766 18C29.8766 11.441 24.5593 6.12393 18 6.12393C11.4407 6.12393 6.12341 11.441 6.12341 18C6.12341 24.559 11.4407 29.8761 18 29.8761Z" fill="url(#paint0_radial_3772_14558)"/>
<path d="M21.2032 15.0783H18.3917C18.379 15.0783 18.3664 15.0765 18.354 15.0791C17.9067 15.1761 17.0636 15.6334 17.0679 16.6322C17.0447 17.0164 17.213 17.6281 18.0166 17.8831C18.019 17.8831 20.0207 17.8831 20.0207 17.8831C20.1095 17.8831 20.6568 18.0083 20.6204 18.9629C20.5837 19.9254 19.7632 20.0504 19.6451 20.1779H16.5397C16.4418 20.1779 16.3624 20.2712 16.3624 20.3692C16.3624 20.4671 16.4418 20.5604 16.5397 20.5604H19.6622C19.6723 20.5604 19.6822 20.5137 19.6922 20.5119C20.1185 20.439 20.9351 20.0017 20.975 18.9557C21.0265 17.6029 20.0477 17.5175 20.0378 17.5168C20.0392 17.5164 18.0597 17.5111 18.0597 17.5111C17.3838 17.3874 17.4203 16.6699 17.4223 16.6387C17.4226 16.6343 17.4227 16.6456 17.4227 16.6412C17.4155 15.7352 18.2765 15.4608 18.4126 15.4608H21.2033C21.3012 15.4608 21.3807 15.3675 21.3807 15.2696C21.3805 15.1716 21.3011 15.0783 21.2032 15.0783Z" fill="#285CAA"/>
<path d="M25.4839 15.0583C25.4677 15.0537 25.4509 15.0783 25.4341 15.0783H23.3333C22.3823 15.0783 21.9528 16.1795 21.9351 16.2275C21.9322 16.2353 21.93 16.2296 21.9281 16.2377C21.9063 16.3363 21.3943 18.652 21.4115 19.4166C21.428 20.1359 22.1605 20.3973 22.5455 20.4385C22.5519 20.4393 22.5583 20.433 22.5648 20.433H25.4853C25.5845 20.433 25.6651 20.341 25.6651 20.2418C25.6651 20.1426 25.5846 20.0506 25.4853 20.0506H22.5757C22.4843 20.0506 21.7838 19.9437 21.7712 19.387C21.7644 19.0881 21.8494 18.5162 21.9519 17.9384L26.0164 17.9081C26.1031 17.9075 26.1771 17.8466 26.192 17.7611C26.1999 17.7165 26.3825 16.677 26.3825 16.0537C26.3823 15.3121 25.5206 15.069 25.4839 15.0583ZM25.8622 17.5534L22.0179 17.5855C22.1359 16.9592 22.256 16.4458 22.2763 16.3536C22.3173 16.251 22.67 15.4607 23.3333 15.4607H25.4056C25.5178 15.4607 26.023 15.659 26.023 16.0794C26.023 16.539 25.9125 17.2403 25.8622 17.5534Z" fill="#285CAA"/>
<path d="M16.5332 16.1548C16.6387 15.4375 15.7326 15.0783 15.563 15.0783H15.5625C14.8309 15.0783 13.7225 15.1034 13.6068 15.0995C13.5914 15.0978 13.5755 15.108 13.5594 15.1105C13.1063 15.1826 12.491 15.7661 12.2934 16.3059L12.2965 16.3096C12.2767 16.3698 12.2594 16.4626 12.233 16.6021C12.201 16.7708 12.1562 17.0123 12.1028 17.3014C11.9962 17.8789 11.8556 18.6493 11.7154 19.4194C11.4349 20.9593 11.1565 22.4993 11.1565 22.4993C11.1393 22.5942 11.2024 22.6853 11.2973 22.7025C11.3078 22.7044 11.3182 22.7054 11.3286 22.7054C11.4114 22.7054 11.4851 22.6463 11.5003 22.5616C11.6181 21.9106 11.8113 20.8446 12.0048 19.7817C12.4611 20.3573 13.0287 20.4177 13.0571 20.4204C13.0641 20.4212 13.0711 20.4217 13.0784 20.421L14.8748 20.3697C14.8903 20.3693 14.9053 20.3669 14.92 20.3624C15.7722 20.1068 16.0285 19.2274 16.0391 19.19C16.0407 19.1838 16.0423 19.1774 16.0433 19.1709L16.5309 16.1839C16.5322 16.1775 16.5323 16.1612 16.5332 16.1548ZM16.1844 16.1481L15.7003 19.1028C15.6751 19.182 15.4525 19.8243 14.8412 20.0209L13.0818 20.0711C13.0007 20.0597 12.4518 19.9588 12.0961 19.2813C12.3551 17.8594 12.593 16.5635 12.6237 16.4259C12.7868 15.9878 13.3142 15.5171 13.6101 15.4665C13.6772 15.4706 13.7689 15.4707 13.8957 15.471C14.081 15.4712 14.3284 15.4711 14.5756 15.4706C14.9852 15.47 15.3946 15.4686 15.5227 15.4681C15.7303 15.4665 16.2349 15.8188 16.1844 16.1481Z" fill="#285CAA"/>
<path d="M8.44093 14.9768C8.71715 14.9768 8.94107 14.738 8.94107 14.4433C8.94107 14.1486 8.71715 13.9097 8.44093 13.9097C8.16471 13.9097 7.94078 14.1486 7.94078 14.4433C7.94078 14.738 8.16471 14.9768 8.44093 14.9768Z" fill="#FDB718"/>
<path d="M7.93594 12.759C7.93594 12.5246 7.79328 12.3276 7.59618 12.2561C7.42968 12.5573 7.2758 12.8666 7.13543 13.1832C7.21932 13.2509 7.32258 13.2926 7.4358 13.2926C7.71207 13.2926 7.93594 13.0537 7.93594 12.759Z" fill="#FDB718"/>
<path d="M6.92609 14.4433C6.92609 14.2986 6.87165 14.1677 6.78394 14.0715C6.68118 14.3653 6.58952 14.6641 6.50971 14.9678C6.74582 14.9251 6.92609 14.7073 6.92609 14.4433Z" fill="#FDB718"/>
<path d="M8.51066 21.477C8.78689 21.477 9.01081 21.2382 9.01081 20.9435C9.01081 20.6488 8.78689 20.41 8.51066 20.41C8.23444 20.41 8.01052 20.6488 8.01052 20.9435C8.01052 21.2382 8.23444 21.477 8.51066 21.477Z" fill="#FDB718"/>
<path d="M6.74391 20.9435C6.74391 20.721 6.58901 20.5388 6.38821 20.5085C6.44507 20.772 6.51022 21.0325 6.58429 21.2893C6.6808 21.2084 6.74391 21.0844 6.74391 20.9435Z" fill="#FDB718"/>
<path d="M7.93364 22.6834C7.93364 22.3887 7.70977 22.1498 7.4335 22.1498C7.23627 22.1498 7.06748 22.2726 6.98601 22.4494C7.08953 22.7049 7.20147 22.9561 7.32195 23.2024C7.3579 23.2112 7.395 23.2168 7.4335 23.2168C7.70964 23.2169 7.93364 22.978 7.93364 22.6834Z" fill="#FDB718"/>
<path d="M8.7826 19.2855H7.77964C7.71462 19.158 7.52835 18.9386 7.30601 18.9386C7.02974 18.9386 6.80587 19.189 6.80587 19.4836C6.80587 19.7782 7.02974 20.0275 7.30601 20.0275C7.52835 20.0275 7.71462 19.9228 7.77964 19.6678H8.90729L9.95921 17.7555H11.5815V17.5005H8.92207L7.82885 15.5882H6.36411C6.33811 15.7149 6.31465 15.8425 6.29259 15.9706H7.66987L8.56459 17.5005H6.13132C6.12788 17.5853 6.12507 17.6702 6.12341 17.7555H9.65259L8.7826 19.2855Z" fill="#FDB718"/>
<path fill-rule="evenodd" clip-rule="evenodd" d="M14.5084 14.4394L14.7603 13.0409L14.8858 13.0636L14.8157 13.4526C14.8297 13.4432 14.8445 13.4345 14.8603 13.427L14.8705 13.4221L14.8817 13.421L14.8878 13.4844C14.8817 13.421 14.8817 13.421 14.8817 13.421L14.8821 13.421L14.8831 13.4209L14.8868 13.4205C14.89 13.4202 14.8946 13.4199 14.9004 13.4194C14.912 13.4185 14.9286 13.4173 14.9488 13.4162C14.9889 13.4141 15.0435 13.4123 15.1007 13.4138C15.1575 13.4153 15.2194 13.4201 15.2732 13.432C15.3001 13.4379 15.3269 13.4461 15.3507 13.4576C15.3701 13.467 15.3902 13.4799 15.4064 13.498C15.4088 13.4995 15.4114 13.5013 15.4142 13.5034C15.4253 13.5115 15.4396 13.5237 15.4535 13.5409C15.482 13.5762 15.507 13.6298 15.5039 13.7044L15.5038 13.7085L15.3783 14.4384L15.2526 14.4168L15.3767 13.6954C15.3774 13.6567 15.3648 13.634 15.3544 13.6211C15.3486 13.614 15.3429 13.6092 15.339 13.6063C15.3371 13.605 15.3351 13.6038 15.3351 13.6038L15.3214 13.5971L15.3119 13.5836C15.3114 13.5829 15.3076 13.5784 15.2952 13.5724C15.2833 13.5666 15.2667 13.5611 15.2456 13.5565C15.2034 13.5471 15.1507 13.5427 15.0974 13.5412C15.0446 13.5399 14.9936 13.5415 14.9556 13.5435C14.9366 13.5446 14.9211 13.5457 14.9103 13.5465C14.9087 13.5466 14.9072 13.5468 14.9057 13.5469C14.867 13.568 14.834 13.6016 14.809 13.6336C14.7959 13.6504 14.7857 13.6659 14.779 13.677C14.7769 13.6804 14.7751 13.6835 14.7737 13.6859L14.6339 14.462L14.5084 14.4394ZM13.4108 13.5483H12.8861V13.4208H13.4315L13.4403 13.4234L13.4223 13.4846C13.4403 13.4234 13.4403 13.4234 13.4403 13.4234L13.441 13.4236L13.4419 13.4239L13.4444 13.4247C13.4463 13.4254 13.4488 13.4262 13.4519 13.4274C13.4579 13.4297 13.4659 13.4331 13.4752 13.4378C13.4937 13.4471 13.5182 13.4622 13.5418 13.485C13.5912 13.5329 13.6319 13.6107 13.6148 13.7249L13.5053 14.4914H12.8746L12.8639 14.4874L12.886 14.4276C12.8639 14.4874 12.8639 14.4874 12.8639 14.4874L12.8632 14.4871L12.8621 14.4867L12.8589 14.4854C12.8563 14.4844 12.8528 14.4829 12.8487 14.4809C12.8404 14.4771 12.8291 14.4714 12.8162 14.4636C12.7906 14.4483 12.7571 14.4239 12.728 14.3882C12.6985 14.3521 12.6734 14.3042 12.6666 14.2436C12.6598 14.1832 12.6718 14.1151 12.7084 14.0394L12.7117 14.0325L12.7166 14.0266L12.7658 14.0671C12.7166 14.0266 12.7166 14.0266 12.7166 14.0266L12.7172 14.0258L12.7185 14.0243C12.7196 14.023 12.7211 14.0212 12.7231 14.0189C12.727 14.0145 12.7325 14.0083 12.7395 14.0009C12.7533 13.9863 12.7731 13.9666 12.7966 13.9467C12.82 13.927 12.8485 13.906 12.8796 13.8897C12.9103 13.8736 12.9476 13.86 12.9877 13.86H12.9888L13.4644 13.876L13.4886 13.7067L13.4887 13.7062C13.4993 13.6357 13.4753 13.5981 13.4531 13.5766C13.4409 13.5648 13.4278 13.5567 13.4177 13.5516C13.4151 13.5503 13.4128 13.5492 13.4108 13.5483ZM13.4463 14.0029L12.9869 13.9875C12.975 13.9877 12.9589 13.9921 12.9387 14.0026C12.9185 14.0132 12.8979 14.0281 12.8788 14.0442C12.8599 14.0601 12.8437 14.0762 12.8322 14.0884C12.8269 14.094 12.8227 14.0987 12.8198 14.102C12.7946 14.1568 12.7898 14.1985 12.7933 14.2294C12.7969 14.2616 12.81 14.2871 12.8267 14.3076C12.8439 14.3285 12.8646 14.344 12.8819 14.3544C12.8887 14.3585 12.8947 14.3616 12.8994 14.3639H13.3947L13.4463 14.0029ZM13.962 13.4208H14.5134V13.5483H13.9942C13.9911 13.5502 13.9876 13.5525 13.9836 13.5553C13.9683 13.5658 13.9471 13.5822 13.9244 13.6054C13.8793 13.6516 13.8288 13.724 13.8085 13.8295L13.8076 13.8342L13.806 13.8387L13.8058 13.8392L13.805 13.8416C13.8043 13.8438 13.8032 13.8473 13.8017 13.8519C13.7989 13.8611 13.7949 13.8747 13.7905 13.8921C13.7817 13.9268 13.7714 13.9758 13.7654 14.0322C13.7541 14.1386 13.7592 14.2642 13.8115 14.3718L13.8385 14.3778H14.3353V14.5053H13.8245L13.7276 14.4837L13.7136 14.4592C13.6301 14.313 13.6253 14.1447 13.6386 14.0188C13.6454 13.955 13.657 13.8999 13.6669 13.8607C13.6719 13.8411 13.6765 13.8253 13.6799 13.8142C13.6816 13.8087 13.6831 13.8044 13.6841 13.8013L13.6842 13.801C13.7107 13.6684 13.7751 13.5758 13.8333 13.5163C13.8626 13.4863 13.8904 13.4646 13.9113 13.4503C13.9218 13.4431 13.9305 13.4377 13.9369 13.4339C13.9401 13.4321 13.9428 13.4306 13.9447 13.4295L13.9472 13.4283L13.948 13.4278L13.9484 13.4276C13.9484 13.4276 13.9485 13.4276 13.9771 13.4846L13.9484 13.4276L13.962 13.4208Z" fill="#285CAA"/>
<defs>
<radialGradient id="paint0_radial_3772_14558" cx="0" cy="0" r="1" gradientUnits="userSpaceOnUse" gradientTransform="translate(18.2124 17.9574) scale(11.8764)">
<stop offset="0.3155" stop-color="white"/>
<stop offset="0.5312" stop-color="white"/>
<stop offset="0.7289" stop-color="#FDFDFD"/>
<stop offset="1" stop-color="#EAEBEC"/>
</radialGradient>
</defs>
</svg>
