<svg width="20" height="20" viewBox="0 0 20 20" fill="none" xmlns="http://www.w3.org/2000/svg">
<mask id="mask0_2506_49505" style="mask-type:alpha" maskUnits="userSpaceOnUse" x="0" y="0" width="20" height="20">
<circle cx="10" cy="10" r="10" fill="#D9D9D9"/>
</mask>
<g mask="url(#mask0_2506_49505)">
<circle cx="10" cy="10" r="10" fill="white"/>
<rect width="10.4348" height="10" fill="#0A53A5"/>
<rect x="10.4346" y="7.5" width="9.56522" height="2.5" fill="#C41A2F"/>
<rect y="17.5" width="20" height="2.5" fill="#C41A2F"/>
<rect x="10.4346" y="2.5" width="9.56522" height="2.5" fill="#C41A2F"/>
<rect y="12.5" width="20" height="2.5" fill="#C41A2F"/>
<path d="M8.26089 3.33325L8.55374 4.19698L9.5014 4.19698L8.73472 4.73079L9.02757 5.59452L8.26089 5.06071L7.49421 5.59452L7.78706 4.73079L7.02038 4.19698L7.96805 4.19698L8.26089 3.33325Z" fill="white"/>
<path d="M4.78286 3.33325L5.07571 4.19698L6.02337 4.19698L5.2567 4.73079L5.54954 5.59452L4.78286 5.06071L4.01619 5.59452L4.30903 4.73079L3.54235 4.19698L4.49002 4.19698L4.78286 3.33325Z" fill="white"/>
<path d="M1.30435 3.33325L1.59719 4.19698L2.54486 4.19698L1.77818 4.73079L2.07102 5.59452L1.30435 5.06071L0.537671 5.59452L0.830516 4.73079L0.0638393 4.19698L1.0115 4.19698L1.30435 3.33325Z" fill="white"/>
<path d="M8.26089 0L8.55374 0.863729H9.5014L8.73472 1.39754L9.02757 2.26127L8.26089 1.72746L7.49421 2.26127L7.78706 1.39754L7.02038 0.863729H7.96805L8.26089 0Z" fill="white"/>
<path d="M4.78238 0L5.07522 0.863729H6.02288L5.25621 1.39754L5.54905 2.26127L4.78238 1.72746L4.0157 2.26127L4.30854 1.39754L3.54187 0.863729H4.48953L4.78238 0Z" fill="white"/>
<path d="M8.26089 6.66675L8.55374 7.53048H9.5014L8.73472 8.06429L9.02757 8.92802L8.26089 8.39421L7.49421 8.92802L7.78706 8.06429L7.02038 7.53048H7.96805L8.26089 6.66675Z" fill="white"/>
<path d="M4.78286 6.66675L5.07571 7.53048H6.02337L5.2567 8.06429L5.54954 8.92802L4.78286 8.39421L4.01619 8.92802L4.30903 8.06429L3.54235 7.53048H4.49002L4.78286 6.66675Z" fill="white"/>
<path d="M1.30435 6.66675L1.59719 7.53048H2.54486L1.77818 8.06429L2.07102 8.92802L1.30435 8.39421L0.537671 8.92802L0.830516 8.06429L0.0638393 7.53048H1.0115L1.30435 6.66675Z" fill="white"/>
</g>
</svg>
