<svg width="33" height="32" viewBox="0 0 33 32" fill="none" xmlns="http://www.w3.org/2000/svg">
<path d="M29.0347 3H3.03467V29H29.0347V3Z" fill="white"/>
<path d="M29.0347 16H3.03467V29H29.0347V16Z" fill="#1434CB"/>
<path d="M13.7911 7.07609L11.4383 11.913H9.89509L8.73136 8.05435C8.65546 7.81522 8.60486 7.72826 8.38982 7.63043C8.03564 7.46739 7.46642 7.31522 6.96045 7.21739L6.9984 7.07609H9.47767C9.7939 7.07609 10.0722 7.26087 10.1481 7.56522L10.7426 10.3696L12.2605 7.07609H13.7911ZM19.8122 10.337C19.8248 9.06522 17.763 8.98913 17.7756 8.42391C17.7756 8.25 17.978 8.06522 18.3954 8.02174C18.5978 8 19.1797 7.97826 19.8248 8.23913L20.0778 7.21739C19.7236 7.1087 19.2809 7 18.7117 7C17.2697 7 16.2577 7.65217 16.2577 8.59783C16.2451 9.29348 16.9787 9.68478 17.5353 9.91304C18.1045 10.1522 18.2943 10.3043 18.2943 10.5109C18.2943 10.837 17.8389 10.9783 17.4214 10.9891C16.6878 11 16.2704 10.8152 15.9288 10.6848L15.6632 11.7391C16.0047 11.8696 16.6372 11.9891 17.2823 12C18.8129 11.9891 19.8122 11.337 19.8122 10.337ZM23.6196 11.913H24.9604L23.7841 7.07609H22.5444C22.2661 7.07609 22.0258 7.21739 21.9246 7.43478L19.7363 11.913H21.2668L21.5704 11.1957H23.4425L23.6196 11.913ZM21.9879 10.1957L22.7595 8.38043L23.2022 10.1957H21.9879ZM15.8656 7.07609L14.6639 11.913H13.2092L14.4109 7.07609H15.8656Z" fill="#1434CB"/>
<path d="M5.97786 22.1453C5.97786 21.906 6.03008 21.7009 6.15192 21.5299C6.27377 21.359 6.43042 21.2393 6.6393 21.1538C6.84818 21.0684 7.07446 21.0171 7.33556 21.0171C7.63147 21.0171 7.85775 21.0513 8.03182 21.1026C8.20588 21.1538 8.34513 21.2222 8.43216 21.2735L8.48438 21.906H8.46698C8.37995 21.8376 8.27551 21.7692 8.15366 21.7179C8.03182 21.6667 7.89256 21.6154 7.75331 21.5812C7.61406 21.547 7.47481 21.5299 7.33556 21.5299C7.12668 21.5299 6.95262 21.5641 6.81337 21.6325C6.67411 21.7009 6.60449 21.8205 6.60449 21.9915C6.60449 22.1282 6.6393 22.2308 6.69152 22.2991C6.76115 22.3675 6.84818 22.4359 6.97002 22.4872C7.09187 22.5385 7.24853 22.5897 7.44 22.641C7.61406 22.6923 7.78813 22.7436 7.94478 22.7778C8.10144 22.8291 8.24069 22.8974 8.34513 22.9658C8.46698 23.0513 8.55401 23.1538 8.62363 23.2735C8.69326 23.4103 8.72807 23.5641 8.72807 23.7692C8.72807 24.1624 8.60623 24.453 8.34513 24.6581C8.08404 24.8632 7.7185 24.9658 7.26593 24.9658C7.03965 24.9658 6.79596 24.9316 6.56967 24.8803C6.32598 24.812 6.13451 24.7265 5.99526 24.6239L5.96045 23.9915H5.97786C6.15192 24.1282 6.3608 24.2479 6.58708 24.3162C6.83077 24.4017 7.07446 24.4359 7.31815 24.4359C7.84034 24.4359 8.10144 24.265 8.10144 23.906C8.10144 23.7863 8.06663 23.6838 8.01441 23.5983C7.96219 23.5128 7.85775 23.4615 7.73591 23.4103C7.61406 23.359 7.44 23.3077 7.23112 23.2564C7.07446 23.2051 6.9178 23.1709 6.76115 23.1197C6.62189 23.0684 6.48264 23 6.3608 22.9145C6.23895 22.8291 6.15192 22.7265 6.08229 22.6068C6.01267 22.5214 5.97786 22.3504 5.97786 22.1453Z" fill="white"/>
<path d="M9.26767 24.9316V21.1026H11.7916V21.6496H9.94652V22.6752H11.3913V23.2051H9.94652V24.3675H11.7742V24.9145H9.26767V24.9316Z" fill="white"/>
<path d="M12.8186 23.0171C12.8186 23.3077 12.8708 23.5641 12.9752 23.7692C13.0797 23.9915 13.2363 24.1453 13.4452 24.265C13.6541 24.3846 13.8978 24.4359 14.1763 24.4359C14.4722 24.4359 14.7159 24.3846 14.9074 24.2991C15.0988 24.2137 15.2729 24.094 15.4121 23.9573H15.4296L15.3599 24.6239C15.2033 24.7265 15.0292 24.812 14.8203 24.8803C14.6115 24.9487 14.3678 24.9829 14.1067 24.9829C13.7933 24.9829 13.5148 24.9316 13.2712 24.8291C13.0275 24.7265 12.8186 24.5897 12.6445 24.4017C12.4705 24.2137 12.3312 24.0085 12.2442 23.7692C12.1571 23.5299 12.1049 23.2735 12.1049 23C12.1049 22.7265 12.1571 22.453 12.2442 22.2137C12.3312 21.9744 12.4705 21.7692 12.6445 21.5812C12.8186 21.3932 13.0275 21.2564 13.2712 21.1538C13.5148 21.0513 13.7933 21 14.0893 21C14.3678 21 14.594 21.0342 14.8029 21.0855C14.9944 21.1368 15.1685 21.2222 15.3077 21.3248L15.3773 22.0085H15.3599C15.2207 21.8718 15.0466 21.7521 14.8551 21.6838C14.6637 21.5983 14.4374 21.5641 14.1763 21.5641C13.8978 21.5641 13.6541 21.6154 13.4452 21.735C13.2363 21.8547 13.0971 22.0256 12.9927 22.2308C12.8708 22.4701 12.8186 22.7265 12.8186 23.0171Z" fill="white"/>
<path d="M17.588 24.4359C17.9361 24.4359 18.1972 24.3675 18.3538 24.2137C18.5105 24.0598 18.5975 23.8034 18.5975 23.4444V21.1026H19.1719V23.4786C19.1719 24.0085 19.0327 24.4017 18.7542 24.641C18.4757 24.8803 18.0753 25 17.5531 25C17.0309 25 16.6306 24.8803 16.3347 24.641C16.0388 24.4017 15.8995 24.0085 15.8995 23.4786V21.1026H16.5958V23.4274C16.5958 23.7863 16.6654 24.0427 16.8221 24.1966C16.9787 24.3504 17.2398 24.4359 17.588 24.4359Z" fill="white"/>
<path d="M19.8508 24.9316V21.1026H21.5044C21.7655 21.1026 21.9744 21.1538 22.1658 21.2564C22.3573 21.359 22.4966 21.4957 22.601 21.6667C22.7054 21.8376 22.7577 22.0427 22.7577 22.265C22.7577 22.5214 22.688 22.7607 22.5314 22.9487C22.3921 23.1368 22.1833 23.2735 21.9222 23.3419L22.9317 24.9316H22.1484L21.2433 23.4274H20.547V24.9316H19.8508ZM21.3129 21.6325H20.5296V22.9316H21.3129C21.5566 22.9316 21.7481 22.8803 21.8525 22.7778C21.957 22.6752 22.0266 22.5043 22.0266 22.2991C22.0266 22.0769 21.9744 21.9231 21.8525 21.8205C21.7481 21.6838 21.574 21.6325 21.3129 21.6325Z" fill="white"/>
<path d="M23.4365 24.9316V21.1026H25.9604V21.6496H24.1328V22.6752H25.5775V23.2051H24.1328V24.3675H25.9604V24.9145H23.4365V24.9316Z" fill="white"/>
</svg>
