<svg width="24" height="24" viewBox="0 0 24 24" fill="none" xmlns="http://www.w3.org/2000/svg">
<path d="M7.17255 8.33501L5.19505 13.3375L4.39505 9.08501C4.30005 8.61001 3.93005 8.33501 3.51755 8.33501H0.282549L0.237549 8.54751C0.902549 8.69251 1.65505 8.92501 2.11255 9.17252C2.39255 9.32502 2.47255 9.45752 2.56505 9.81752L4.08005 15.6825H6.09005L9.17005 8.33251H7.17255V8.33501ZM9.98505 8.33501L8.41255 15.685H10.315L11.8875 8.33501H9.98755H9.98505ZM20.8851 10.32L21.4626 13.08H19.8851L20.8851 10.32ZM20.605 8.33501C20.24 8.33501 19.9326 8.54751 19.7951 8.87501L16.9426 15.685H18.9375L19.335 14.5875H21.7725L22.0026 15.685H23.7626L22.2276 8.33501H20.605V8.33501ZM12.4025 10.63C12.39 11.6875 13.3451 12.2775 14.0676 12.63C14.8076 12.99 15.0576 13.2225 15.0526 13.5425C15.0476 14.035 14.4626 14.2525 13.9151 14.2625C12.9601 14.2775 12.4051 14.005 11.9626 13.7975L11.6175 15.4075C12.0625 15.6125 12.8801 15.79 13.7326 15.7975C15.7301 15.7975 17.035 14.8125 17.0425 13.2825C17.05 11.3425 14.3601 11.235 14.3801 10.37C14.3876 10.1075 14.6375 9.82752 15.1875 9.75502C15.46 9.72002 16.21 9.69251 17.0625 10.085L17.3975 8.52751C16.94 8.36001 16.35 8.20251 15.6175 8.20251C13.7375 8.20251 12.415 9.20252 12.405 10.6325" fill="url(#paint0_linear_1038_41414)"/>
<defs>
<linearGradient id="paint0_linear_1038_41414" x1="23.7625" y1="12" x2="0.237548" y2="12" gradientUnits="userSpaceOnUse">
<stop offset="0.138614" stop-color="#122D94"/>
<stop offset="0.833333" stop-color="#1A2166"/>
</linearGradient>
</defs>
</svg>
